M48
; DRILL file {KiCad (5.1.6)-1} date 11/06/20 18:28:53
; FORMAT={-:-/ absolute / inch / decimal}
; #@! TF.CreationDate,2020-11-06T18:28:53+03:00
; #@! TF.GenerationSoftware,Kicad,Pcbnew,(5.1.6)-1
; #@! TF.FileFunction,Plated,1,2,PTH
FMAT,2
INCH
T1C0.0157
T2C0.0295
T3C0.0300
T4C0.0315
T5C0.0354
T6C0.0394
T7C0.0433
T8C0.0512
%
G90
G05
T1
X3.725Y-3.65
X4.0375Y-3.63
X6.965Y-5.315
X7.2225Y-5.3125
X7.5125Y-5.29
X7.8475Y-5.2975
X8.17Y-5.275
X8.45Y-5.2775
X8.74Y-5.3225
X9.0125Y-5.335
X9.3275Y-5.3075
T2
X7.06Y-5.2
X7.11Y-5.2
X7.16Y-5.2
X8.2725Y-5.195
X8.3225Y-5.195
X8.3725Y-5.195
X7.355Y-5.2008
X7.405Y-5.2008
X7.455Y-5.2008
X7.665Y-5.195
X7.715Y-5.195
X7.765Y-5.195
X7.9675Y-5.1975
X8.0175Y-5.1975
X8.0675Y-5.1975
X9.1275Y-5.2075
X9.1775Y-5.2075
X9.2275Y-5.2075
X8.8175Y-5.2075
X8.8675Y-5.2075
X8.9175Y-5.2075
X9.4175Y-5.21
X9.4675Y-5.21
X9.5175Y-5.21
X8.5425Y-5.205
X8.5925Y-5.205
X8.6425Y-5.205
X6.7825Y-5.2
X6.8325Y-5.2
X6.8825Y-5.2
T3
X7.7525Y-1.2975
X7.7525Y-1.4975
X7.7525Y-1.6975
X7.8525Y-1.1975
X7.8525Y-1.7975
X8.0025Y-1.1475
X8.0025Y-1.8475
X8.1525Y-1.1975
X8.1525Y-1.7975
X8.2525Y-1.2975
X8.2525Y-1.4975
X8.2525Y-1.6975
X5.45Y-1.285
X5.45Y-1.485
X5.45Y-1.685
X5.55Y-1.185
X5.55Y-1.785
X5.7Y-1.135
X5.7Y-1.835
X5.85Y-1.185
X5.85Y-1.785
X5.95Y-1.285
X5.95Y-1.485
X5.95Y-1.685
X4.32Y-1.3025
X4.32Y-1.5025
X4.32Y-1.7025
X4.42Y-1.2025
X4.42Y-1.8025
X4.57Y-1.1525
X4.57Y-1.8525
X4.72Y-1.2025
X4.72Y-1.8025
X4.82Y-1.3025
X4.82Y-1.5025
X4.82Y-1.7025
X6.585Y-1.2975
X6.585Y-1.4975
X6.585Y-1.6975
X6.685Y-1.1975
X6.685Y-1.7975
X6.835Y-1.1475
X6.835Y-1.8475
X6.985Y-1.1975
X6.985Y-1.7975
X7.085Y-1.2975
X7.085Y-1.4975
X7.085Y-1.6975
T4
X6.56Y-4.71
X6.56Y-4.81
X9.3325Y-3.295
X9.3325Y-3.595
X9.4325Y-3.295
X9.4325Y-3.595
X5.065Y-4.9475
X5.065Y-5.0475
X6.395Y-5.0725
X6.495Y-5.0725
X8.5175Y-3.29
X8.5175Y-3.59
X8.6175Y-3.29
X8.6175Y-3.59
X4.77Y-5.0475
X4.87Y-5.0475
X4.0725Y-4.8325
X4.1725Y-4.8325
X8.9275Y-3.2925
X8.9275Y-3.5925
X9.0275Y-3.2925
X9.0275Y-3.5925
X8.12Y-3.2925
X8.12Y-3.5925
X8.22Y-3.2925
X8.22Y-3.5925
T5
X5.275Y-5.08
X5.675Y-5.08
X4.4175Y-4.22
X4.4175Y-4.62
X7.45Y-3.6025
X7.85Y-3.6025
X3.48Y-4.2225
X3.88Y-4.2225
X9.6775Y-3.8675
X9.6775Y-4.2675
X4.515Y-4.8275
X4.915Y-4.8275
X6.8Y-3.5075
X7.2Y-3.5075
X6.8075Y-3.72
X7.2075Y-3.72
X3.2075Y-4.56
X3.6075Y-4.56
X5.9225Y-4.69
X5.9225Y-5.09
X4.1075Y-4.2275
X4.1075Y-4.6275
T6
X6.5175Y-2.5
X6.6175Y-2.5
X6.7175Y-2.5
X6.8175Y-2.5
X7.515Y-5.645
X7.615Y-5.645
X7.715Y-5.645
X7.815Y-5.645
X7.915Y-5.645
X8.015Y-5.645
X8.115Y-5.645
X8.215Y-5.645
X8.315Y-5.645
X8.415Y-5.645
X7.18Y-4.1125
X7.18Y-4.7125
X7.28Y-4.1125
X7.28Y-4.7125
X7.38Y-4.1125
X7.38Y-4.7125
X7.48Y-4.1125
X7.48Y-4.7125
X7.58Y-4.1125
X7.58Y-4.7125
X7.68Y-4.1125
X7.68Y-4.7125
X7.78Y-4.1125
X7.78Y-4.7125
X7.88Y-4.1125
X7.88Y-4.7125
X7.98Y-4.1125
X7.98Y-4.7125
X8.08Y-4.1125
X8.08Y-4.7125
X8.18Y-4.1125
X8.18Y-4.7125
X8.28Y-4.1125
X8.28Y-4.7125
X8.38Y-4.1125
X8.38Y-4.7125
X8.48Y-4.1125
X8.48Y-4.7125
X8.58Y-4.1125
X8.58Y-4.7125
X8.68Y-4.1125
X8.68Y-4.7125
X8.78Y-4.1125
X8.78Y-4.7125
X8.88Y-4.1125
X8.88Y-4.7125
X8.98Y-4.1125
X8.98Y-4.7125
X9.08Y-4.1125
X9.08Y-4.7125
X7.4875Y-2.3625
X7.5875Y-2.3625
X7.6875Y-2.3625
X7.7875Y-2.3625
X7.8875Y-2.3625
X7.9875Y-2.3625
X8.0875Y-2.3625
X8.1875Y-2.3625
X8.2875Y-2.3625
X8.3875Y-2.3625
X8.615Y-3.0275
X8.715Y-3.0275
X8.815Y-3.0275
X8.915Y-3.0275
X4.79Y-3.415
X4.79Y-4.163
X6.0892Y-3.415
X6.0892Y-3.915
T7
X6.16Y-4.69
X6.16Y-5.09
X3.265Y-4.795
X3.265Y-4.9722
X3.5209Y-4.795
X3.5209Y-4.9722
T8
X3.1575Y-3.8613
X3.1575Y-4.1125
T0
M30
