%TF.GenerationSoftware,KiCad,Pcbnew,(5.1.6)-1*%
%TF.CreationDate,2020-11-06T18:28:59+03:00*%
%TF.ProjectId,_____  _____ V2,4145353c-3020-4204-9730-413e32205632,rev?*%
%TF.SameCoordinates,Original*%
%TF.FileFunction,Soldermask,Bot*%
%TF.FilePolarity,Negative*%
%FSLAX46Y46*%
G04 Gerber Fmt 4.6, Leading zero omitted, Abs format (unit mm)*
G04 Created by KiCad (PCBNEW (5.1.6)-1) date 2020-11-06 18:28:59*
%MOMM*%
%LPD*%
G01*
G04 APERTURE LIST*
%ADD10R,1.700000X1.700000*%
%ADD11O,1.700000X1.700000*%
%ADD12C,1.524000*%
%ADD13O,1.600000X1.600000*%
%ADD14R,1.600000X1.600000*%
%ADD15O,1.800000X1.800000*%
%ADD16R,1.800000X1.800000*%
%ADD17R,1.050000X1.500000*%
%ADD18O,1.050000X1.500000*%
%ADD19O,1.440000X2.000000*%
%ADD20R,1.440000X2.000000*%
%ADD21O,2.200000X2.200000*%
%ADD22R,2.200000X2.200000*%
%ADD23C,2.000000*%
%ADD24R,2.000000X2.000000*%
%ADD25C,1.400000*%
%ADD26C,2.600000*%
G04 APERTURE END LIST*
D10*
%TO.C,REF\u002A\u002A*%
X218821000Y-76898500D03*
D11*
X221361000Y-76898500D03*
X223901000Y-76898500D03*
X226441000Y-76898500D03*
%TD*%
D10*
%TO.C,REF\u002A\u002A*%
X190881000Y-143383000D03*
D11*
X193421000Y-143383000D03*
X195961000Y-143383000D03*
X198501000Y-143383000D03*
X201041000Y-143383000D03*
X203581000Y-143383000D03*
X206121000Y-143383000D03*
X208661000Y-143383000D03*
X211201000Y-143383000D03*
X213741000Y-143383000D03*
%TD*%
D12*
%TO.C,D12*%
X207073500Y-45656500D03*
X199453500Y-45656500D03*
X199453500Y-30416500D03*
X207073500Y-30416500D03*
X203263500Y-46926500D03*
X203263500Y-29146500D03*
X196913500Y-43116500D03*
X209613500Y-43116500D03*
X209613500Y-32956500D03*
X196913500Y-32956500D03*
X209613500Y-38036500D03*
X196913500Y-38036500D03*
%TD*%
D11*
%TO.C,REF\u002A\u002A*%
X213042500Y-60007500D03*
X210502500Y-60007500D03*
X207962500Y-60007500D03*
X205422500Y-60007500D03*
X202882500Y-60007500D03*
X200342500Y-60007500D03*
X197802500Y-60007500D03*
X195262500Y-60007500D03*
X192722500Y-60007500D03*
D10*
X190182500Y-60007500D03*
%TD*%
D11*
%TO.C,REF\u002A\u002A*%
X173164500Y-63500000D03*
X170624500Y-63500000D03*
X168084500Y-63500000D03*
D10*
X165544500Y-63500000D03*
%TD*%
D13*
%TO.C,U6*%
X206248000Y-83629500D03*
X208788000Y-91249500D03*
X208788000Y-83629500D03*
D14*
X206248000Y-91249500D03*
%TD*%
D13*
%TO.C,U5*%
X216344500Y-83566000D03*
X218884500Y-91186000D03*
X218884500Y-83566000D03*
D14*
X216344500Y-91186000D03*
%TD*%
D13*
%TO.C,U4*%
X226758500Y-83629500D03*
X229298500Y-91249500D03*
X229298500Y-83629500D03*
D14*
X226758500Y-91249500D03*
%TD*%
D13*
%TO.C,U3*%
X237045500Y-83693000D03*
X239585500Y-91313000D03*
X239585500Y-83693000D03*
D14*
X237045500Y-91313000D03*
%TD*%
D15*
%TO.C,R15*%
X245808500Y-108394500D03*
D16*
X245808500Y-98234500D03*
%TD*%
D15*
%TO.C,R14*%
X189230000Y-91503500D03*
D16*
X199390000Y-91503500D03*
%TD*%
D15*
%TO.C,R13*%
X172910500Y-94488000D03*
D16*
X183070500Y-94488000D03*
%TD*%
D15*
%TO.C,R12*%
X182880000Y-89090500D03*
D16*
X172720000Y-89090500D03*
%TD*%
D15*
%TO.C,R7*%
X133985000Y-129032000D03*
D16*
X144145000Y-129032000D03*
%TD*%
D15*
%TO.C,R6*%
X150431500Y-129286000D03*
D16*
X150431500Y-119126000D03*
%TD*%
D15*
%TO.C,R5*%
X114681000Y-122618500D03*
D16*
X124841000Y-122618500D03*
%TD*%
D15*
%TO.C,R4*%
X112204500Y-117348000D03*
D16*
X112204500Y-107188000D03*
%TD*%
D15*
%TO.C,R3*%
X104330500Y-117538500D03*
D16*
X104330500Y-107378500D03*
%TD*%
D15*
%TO.C,R2*%
X98552000Y-107251500D03*
D16*
X88392000Y-107251500D03*
%TD*%
D15*
%TO.C,R1*%
X81470500Y-115824000D03*
D16*
X91630500Y-115824000D03*
%TD*%
D17*
%TO.C,Q15*%
X174815500Y-132080000D03*
D18*
X172275500Y-132080000D03*
X173545500Y-132080000D03*
%TD*%
D17*
%TO.C,Q14*%
X181864000Y-132080000D03*
D18*
X179324000Y-132080000D03*
X180594000Y-132080000D03*
%TD*%
D17*
%TO.C,Q13*%
X189357500Y-132101500D03*
D18*
X186817500Y-132101500D03*
X188087500Y-132101500D03*
%TD*%
D17*
%TO.C,Q12*%
X197231000Y-131953000D03*
D18*
X194691000Y-131953000D03*
X195961000Y-131953000D03*
%TD*%
D17*
%TO.C,Q11*%
X204914500Y-132016500D03*
D18*
X202374500Y-132016500D03*
X203644500Y-132016500D03*
%TD*%
D17*
%TO.C,Q10*%
X223964500Y-132270500D03*
D18*
X226504500Y-132270500D03*
X225234500Y-132270500D03*
%TD*%
D17*
%TO.C,Q9*%
X231838500Y-132270500D03*
D18*
X234378500Y-132270500D03*
X233108500Y-132270500D03*
%TD*%
D17*
%TO.C,Q8*%
X239204500Y-132334000D03*
D18*
X241744500Y-132334000D03*
X240474500Y-132334000D03*
%TD*%
D17*
%TO.C,Q7*%
X216979500Y-132207000D03*
D18*
X219519500Y-132207000D03*
X218249500Y-132207000D03*
%TD*%
D17*
%TO.C,Q6*%
X210121500Y-131953000D03*
D18*
X212661500Y-131953000D03*
X211391500Y-131953000D03*
%TD*%
D12*
%TO.C,D14*%
X148590000Y-45339000D03*
X140970000Y-45339000D03*
X140970000Y-30099000D03*
X148590000Y-30099000D03*
X144780000Y-46609000D03*
X144780000Y-28829000D03*
X138430000Y-42799000D03*
X151130000Y-42799000D03*
X151130000Y-32639000D03*
X138430000Y-32639000D03*
X151130000Y-37719000D03*
X138430000Y-37719000D03*
%TD*%
D19*
%TO.C,D13*%
X182372000Y-119697500D03*
X182372000Y-104457500D03*
X184912000Y-119697500D03*
X184912000Y-104457500D03*
X187452000Y-119697500D03*
X187452000Y-104457500D03*
X189992000Y-119697500D03*
X189992000Y-104457500D03*
X192532000Y-119697500D03*
X192532000Y-104457500D03*
X195072000Y-119697500D03*
X195072000Y-104457500D03*
X197612000Y-119697500D03*
X197612000Y-104457500D03*
X200152000Y-119697500D03*
X200152000Y-104457500D03*
X202692000Y-119697500D03*
X202692000Y-104457500D03*
X205232000Y-119697500D03*
X205232000Y-104457500D03*
X207772000Y-119697500D03*
X207772000Y-104457500D03*
X210312000Y-119697500D03*
X210312000Y-104457500D03*
X212852000Y-119697500D03*
X212852000Y-104457500D03*
X215392000Y-119697500D03*
X215392000Y-104457500D03*
X217932000Y-119697500D03*
X217932000Y-104457500D03*
X220472000Y-119697500D03*
X220472000Y-104457500D03*
X223012000Y-119697500D03*
X223012000Y-104457500D03*
X225552000Y-119697500D03*
X225552000Y-104457500D03*
X228092000Y-119697500D03*
X228092000Y-104457500D03*
X230632000Y-119697500D03*
D20*
X230632000Y-104457500D03*
%TD*%
D12*
%TO.C,D11*%
X119888000Y-45783500D03*
X112268000Y-45783500D03*
X112268000Y-30543500D03*
X119888000Y-30543500D03*
X116078000Y-47053500D03*
X116078000Y-29273500D03*
X109728000Y-43243500D03*
X122428000Y-43243500D03*
X122428000Y-33083500D03*
X109728000Y-33083500D03*
X122428000Y-38163500D03*
X109728000Y-38163500D03*
%TD*%
%TO.C,D9*%
X177419000Y-45656500D03*
X169799000Y-45656500D03*
X169799000Y-30416500D03*
X177419000Y-30416500D03*
X173609000Y-46926500D03*
X173609000Y-29146500D03*
X167259000Y-43116500D03*
X179959000Y-43116500D03*
X179959000Y-32956500D03*
X167259000Y-32956500D03*
X179959000Y-38036500D03*
X167259000Y-38036500D03*
%TD*%
D21*
%TO.C,D5*%
X156464000Y-119126000D03*
D22*
X156464000Y-129286000D03*
%TD*%
D23*
%TO.C,D3*%
X154666000Y-99441000D03*
X154666000Y-86741000D03*
X121666000Y-105741000D03*
D24*
X121666000Y-86741000D03*
%TD*%
D23*
%TO.C,CB1*%
X89431000Y-121793000D03*
X89431000Y-126293000D03*
X82931000Y-121793000D03*
X82931000Y-126293000D03*
%TD*%
D25*
%TO.C,C8*%
X166624000Y-122174000D03*
X166624000Y-119634000D03*
%TD*%
%TO.C,C7*%
X164973000Y-128841500D03*
X162433000Y-128841500D03*
%TD*%
%TO.C,C3*%
X128651000Y-128206500D03*
X128651000Y-125666500D03*
%TD*%
%TO.C,C2*%
X121158000Y-128206500D03*
X123698000Y-128206500D03*
%TD*%
%TO.C,C1*%
X105981500Y-122745500D03*
X103441500Y-122745500D03*
%TD*%
D26*
%TO.C,BT1*%
X80200500Y-98077500D03*
X80200500Y-104457500D03*
%TD*%
M02*
