%TF.GenerationSoftware,KiCad,Pcbnew,(5.1.6)-1*%
%TF.CreationDate,2020-11-06T18:28:59+03:00*%
%TF.ProjectId,_____  _____ V2,4145353c-3020-4204-9730-413e32205632,rev?*%
%TF.SameCoordinates,Original*%
%TF.FileFunction,Legend,Top*%
%TF.FilePolarity,Positive*%
%FSLAX46Y46*%
G04 Gerber Fmt 4.6, Leading zero omitted, Abs format (unit mm)*
G04 Created by KiCad (PCBNEW (5.1.6)-1) date 2020-11-06 18:28:59*
%MOMM*%
%LPD*%
G01*
G04 APERTURE LIST*
%ADD10C,0.120000*%
%ADD11C,0.150000*%
G04 APERTURE END LIST*
D10*
%TO.C,REF\u002A\u002A*%
X220091000Y-78228500D02*
X220091000Y-75568500D01*
X220091000Y-78228500D02*
X227771000Y-78228500D01*
X227771000Y-78228500D02*
X227771000Y-75568500D01*
X220091000Y-75568500D02*
X227771000Y-75568500D01*
X217491000Y-75568500D02*
X218821000Y-75568500D01*
X217491000Y-76898500D02*
X217491000Y-75568500D01*
X192151000Y-144713000D02*
X192151000Y-142053000D01*
X192151000Y-144713000D02*
X215071000Y-144713000D01*
X215071000Y-144713000D02*
X215071000Y-142053000D01*
X192151000Y-142053000D02*
X215071000Y-142053000D01*
X189551000Y-142053000D02*
X190881000Y-142053000D01*
X189551000Y-143383000D02*
X189551000Y-142053000D01*
%TO.C,D12*%
X213423500Y-38036500D02*
X213423500Y-22796500D01*
X213423500Y-22796500D02*
X193103500Y-22796500D01*
X193103500Y-22796500D02*
X193103500Y-54546500D01*
X193103500Y-54546500D02*
X213423500Y-54546500D01*
X213423500Y-54546500D02*
X213423500Y-38036500D01*
X204513500Y-38036500D02*
G75*
G03*
X204513500Y-38036500I-1250000J0D01*
G01*
%TO.C,REF\u002A\u002A*%
X191452500Y-61337500D02*
X191452500Y-58677500D01*
X191452500Y-61337500D02*
X214372500Y-61337500D01*
X214372500Y-61337500D02*
X214372500Y-58677500D01*
X191452500Y-58677500D02*
X214372500Y-58677500D01*
X188852500Y-58677500D02*
X190182500Y-58677500D01*
X188852500Y-60007500D02*
X188852500Y-58677500D01*
X166814500Y-64830000D02*
X166814500Y-62170000D01*
X166814500Y-64830000D02*
X174494500Y-64830000D01*
X174494500Y-64830000D02*
X174494500Y-62170000D01*
X166814500Y-62170000D02*
X174494500Y-62170000D01*
X164214500Y-62170000D02*
X165544500Y-62170000D01*
X164214500Y-63500000D02*
X164214500Y-62170000D01*
%TO.C,U6*%
X204918000Y-86439500D02*
G75*
G02*
X204918000Y-88439500I0J-1000000D01*
G01*
X204918000Y-88439500D02*
X204918000Y-90089500D01*
X204918000Y-90089500D02*
X210118000Y-90089500D01*
X210118000Y-90089500D02*
X210118000Y-84789500D01*
X210118000Y-84789500D02*
X204918000Y-84789500D01*
X204918000Y-84789500D02*
X204918000Y-86439500D01*
%TO.C,U5*%
X215014500Y-86376000D02*
G75*
G02*
X215014500Y-88376000I0J-1000000D01*
G01*
X215014500Y-88376000D02*
X215014500Y-90026000D01*
X215014500Y-90026000D02*
X220214500Y-90026000D01*
X220214500Y-90026000D02*
X220214500Y-84726000D01*
X220214500Y-84726000D02*
X215014500Y-84726000D01*
X215014500Y-84726000D02*
X215014500Y-86376000D01*
%TO.C,U4*%
X225428500Y-86439500D02*
G75*
G02*
X225428500Y-88439500I0J-1000000D01*
G01*
X225428500Y-88439500D02*
X225428500Y-90089500D01*
X225428500Y-90089500D02*
X230628500Y-90089500D01*
X230628500Y-90089500D02*
X230628500Y-84789500D01*
X230628500Y-84789500D02*
X225428500Y-84789500D01*
X225428500Y-84789500D02*
X225428500Y-86439500D01*
%TO.C,U3*%
X235715500Y-86503000D02*
G75*
G02*
X235715500Y-88503000I0J-1000000D01*
G01*
X235715500Y-88503000D02*
X235715500Y-90153000D01*
X235715500Y-90153000D02*
X240915500Y-90153000D01*
X240915500Y-90153000D02*
X240915500Y-84853000D01*
X240915500Y-84853000D02*
X235715500Y-84853000D01*
X235715500Y-84853000D02*
X235715500Y-86503000D01*
%TO.C,U1*%
X142816500Y-122726500D02*
X142816500Y-121466500D01*
X142816500Y-115906500D02*
X142816500Y-117166500D01*
X139056500Y-122726500D02*
X142816500Y-122726500D01*
X136806500Y-115906500D02*
X142816500Y-115906500D01*
%TO.C,R15*%
X247278500Y-100594500D02*
X244338500Y-100594500D01*
X244338500Y-100594500D02*
X244338500Y-106034500D01*
X244338500Y-106034500D02*
X247278500Y-106034500D01*
X247278500Y-106034500D02*
X247278500Y-100594500D01*
X245808500Y-99374500D02*
X245808500Y-100594500D01*
X245808500Y-107254500D02*
X245808500Y-106034500D01*
X247278500Y-101494500D02*
X244338500Y-101494500D01*
X247278500Y-101614500D02*
X244338500Y-101614500D01*
X247278500Y-101374500D02*
X244338500Y-101374500D01*
%TO.C,R14*%
X197030000Y-92973500D02*
X197030000Y-90033500D01*
X197030000Y-90033500D02*
X191590000Y-90033500D01*
X191590000Y-90033500D02*
X191590000Y-92973500D01*
X191590000Y-92973500D02*
X197030000Y-92973500D01*
X198250000Y-91503500D02*
X197030000Y-91503500D01*
X190370000Y-91503500D02*
X191590000Y-91503500D01*
X196130000Y-92973500D02*
X196130000Y-90033500D01*
X196010000Y-92973500D02*
X196010000Y-90033500D01*
X196250000Y-92973500D02*
X196250000Y-90033500D01*
%TO.C,R13*%
X180710500Y-95958000D02*
X180710500Y-93018000D01*
X180710500Y-93018000D02*
X175270500Y-93018000D01*
X175270500Y-93018000D02*
X175270500Y-95958000D01*
X175270500Y-95958000D02*
X180710500Y-95958000D01*
X181930500Y-94488000D02*
X180710500Y-94488000D01*
X174050500Y-94488000D02*
X175270500Y-94488000D01*
X179810500Y-95958000D02*
X179810500Y-93018000D01*
X179690500Y-95958000D02*
X179690500Y-93018000D01*
X179930500Y-95958000D02*
X179930500Y-93018000D01*
%TO.C,R12*%
X175080000Y-87620500D02*
X175080000Y-90560500D01*
X175080000Y-90560500D02*
X180520000Y-90560500D01*
X180520000Y-90560500D02*
X180520000Y-87620500D01*
X180520000Y-87620500D02*
X175080000Y-87620500D01*
X173860000Y-89090500D02*
X175080000Y-89090500D01*
X181740000Y-89090500D02*
X180520000Y-89090500D01*
X175980000Y-87620500D02*
X175980000Y-90560500D01*
X176100000Y-87620500D02*
X176100000Y-90560500D01*
X175860000Y-87620500D02*
X175860000Y-90560500D01*
%TO.C,R7*%
X141785000Y-130502000D02*
X141785000Y-127562000D01*
X141785000Y-127562000D02*
X136345000Y-127562000D01*
X136345000Y-127562000D02*
X136345000Y-130502000D01*
X136345000Y-130502000D02*
X141785000Y-130502000D01*
X143005000Y-129032000D02*
X141785000Y-129032000D01*
X135125000Y-129032000D02*
X136345000Y-129032000D01*
X140885000Y-130502000D02*
X140885000Y-127562000D01*
X140765000Y-130502000D02*
X140765000Y-127562000D01*
X141005000Y-130502000D02*
X141005000Y-127562000D01*
%TO.C,R6*%
X151901500Y-121486000D02*
X148961500Y-121486000D01*
X148961500Y-121486000D02*
X148961500Y-126926000D01*
X148961500Y-126926000D02*
X151901500Y-126926000D01*
X151901500Y-126926000D02*
X151901500Y-121486000D01*
X150431500Y-120266000D02*
X150431500Y-121486000D01*
X150431500Y-128146000D02*
X150431500Y-126926000D01*
X151901500Y-122386000D02*
X148961500Y-122386000D01*
X151901500Y-122506000D02*
X148961500Y-122506000D01*
X151901500Y-122266000D02*
X148961500Y-122266000D01*
%TO.C,R5*%
X122481000Y-124088500D02*
X122481000Y-121148500D01*
X122481000Y-121148500D02*
X117041000Y-121148500D01*
X117041000Y-121148500D02*
X117041000Y-124088500D01*
X117041000Y-124088500D02*
X122481000Y-124088500D01*
X123701000Y-122618500D02*
X122481000Y-122618500D01*
X115821000Y-122618500D02*
X117041000Y-122618500D01*
X121581000Y-124088500D02*
X121581000Y-121148500D01*
X121461000Y-124088500D02*
X121461000Y-121148500D01*
X121701000Y-124088500D02*
X121701000Y-121148500D01*
%TO.C,R4*%
X113674500Y-109548000D02*
X110734500Y-109548000D01*
X110734500Y-109548000D02*
X110734500Y-114988000D01*
X110734500Y-114988000D02*
X113674500Y-114988000D01*
X113674500Y-114988000D02*
X113674500Y-109548000D01*
X112204500Y-108328000D02*
X112204500Y-109548000D01*
X112204500Y-116208000D02*
X112204500Y-114988000D01*
X113674500Y-110448000D02*
X110734500Y-110448000D01*
X113674500Y-110568000D02*
X110734500Y-110568000D01*
X113674500Y-110328000D02*
X110734500Y-110328000D01*
%TO.C,R3*%
X105800500Y-109738500D02*
X102860500Y-109738500D01*
X102860500Y-109738500D02*
X102860500Y-115178500D01*
X102860500Y-115178500D02*
X105800500Y-115178500D01*
X105800500Y-115178500D02*
X105800500Y-109738500D01*
X104330500Y-108518500D02*
X104330500Y-109738500D01*
X104330500Y-116398500D02*
X104330500Y-115178500D01*
X105800500Y-110638500D02*
X102860500Y-110638500D01*
X105800500Y-110758500D02*
X102860500Y-110758500D01*
X105800500Y-110518500D02*
X102860500Y-110518500D01*
%TO.C,R2*%
X90752000Y-105781500D02*
X90752000Y-108721500D01*
X90752000Y-108721500D02*
X96192000Y-108721500D01*
X96192000Y-108721500D02*
X96192000Y-105781500D01*
X96192000Y-105781500D02*
X90752000Y-105781500D01*
X89532000Y-107251500D02*
X90752000Y-107251500D01*
X97412000Y-107251500D02*
X96192000Y-107251500D01*
X91652000Y-105781500D02*
X91652000Y-108721500D01*
X91772000Y-105781500D02*
X91772000Y-108721500D01*
X91532000Y-105781500D02*
X91532000Y-108721500D01*
%TO.C,R1*%
X89270500Y-117294000D02*
X89270500Y-114354000D01*
X89270500Y-114354000D02*
X83830500Y-114354000D01*
X83830500Y-114354000D02*
X83830500Y-117294000D01*
X83830500Y-117294000D02*
X89270500Y-117294000D01*
X90490500Y-115824000D02*
X89270500Y-115824000D01*
X82610500Y-115824000D02*
X83830500Y-115824000D01*
X88370500Y-117294000D02*
X88370500Y-114354000D01*
X88250500Y-117294000D02*
X88250500Y-114354000D01*
X88490500Y-117294000D02*
X88490500Y-114354000D01*
%TO.C,Q15*%
X171707022Y-130241522D02*
G75*
G03*
X173545500Y-134680000I1838478J-1838478D01*
G01*
X175383978Y-130241522D02*
G75*
G02*
X173545500Y-134680000I-1838478J-1838478D01*
G01*
X175345500Y-130230000D02*
X171745500Y-130230000D01*
%TO.C,Q14*%
X178755522Y-130241522D02*
G75*
G03*
X180594000Y-134680000I1838478J-1838478D01*
G01*
X182432478Y-130241522D02*
G75*
G02*
X180594000Y-134680000I-1838478J-1838478D01*
G01*
X182394000Y-130230000D02*
X178794000Y-130230000D01*
%TO.C,Q13*%
X186249022Y-130263022D02*
G75*
G03*
X188087500Y-134701500I1838478J-1838478D01*
G01*
X189925978Y-130263022D02*
G75*
G02*
X188087500Y-134701500I-1838478J-1838478D01*
G01*
X189887500Y-130251500D02*
X186287500Y-130251500D01*
%TO.C,Q12*%
X194122522Y-130114522D02*
G75*
G03*
X195961000Y-134553000I1838478J-1838478D01*
G01*
X197799478Y-130114522D02*
G75*
G02*
X195961000Y-134553000I-1838478J-1838478D01*
G01*
X197761000Y-130103000D02*
X194161000Y-130103000D01*
%TO.C,Q11*%
X201806022Y-130178022D02*
G75*
G03*
X203644500Y-134616500I1838478J-1838478D01*
G01*
X205482978Y-130178022D02*
G75*
G02*
X203644500Y-134616500I-1838478J-1838478D01*
G01*
X205444500Y-130166500D02*
X201844500Y-130166500D01*
%TO.C,Q10*%
X227072978Y-134108978D02*
G75*
G03*
X225234500Y-129670500I-1838478J1838478D01*
G01*
X223396022Y-134108978D02*
G75*
G02*
X225234500Y-129670500I1838478J1838478D01*
G01*
X223434500Y-134120500D02*
X227034500Y-134120500D01*
%TO.C,Q9*%
X234946978Y-134108978D02*
G75*
G03*
X233108500Y-129670500I-1838478J1838478D01*
G01*
X231270022Y-134108978D02*
G75*
G02*
X233108500Y-129670500I1838478J1838478D01*
G01*
X231308500Y-134120500D02*
X234908500Y-134120500D01*
%TO.C,Q8*%
X242312978Y-134172478D02*
G75*
G03*
X240474500Y-129734000I-1838478J1838478D01*
G01*
X238636022Y-134172478D02*
G75*
G02*
X240474500Y-129734000I1838478J1838478D01*
G01*
X238674500Y-134184000D02*
X242274500Y-134184000D01*
%TO.C,Q7*%
X220087978Y-134045478D02*
G75*
G03*
X218249500Y-129607000I-1838478J1838478D01*
G01*
X216411022Y-134045478D02*
G75*
G02*
X218249500Y-129607000I1838478J1838478D01*
G01*
X216449500Y-134057000D02*
X220049500Y-134057000D01*
%TO.C,Q6*%
X213229978Y-133791478D02*
G75*
G03*
X211391500Y-129353000I-1838478J1838478D01*
G01*
X209553022Y-133791478D02*
G75*
G02*
X211391500Y-129353000I1838478J1838478D01*
G01*
X209591500Y-133803000D02*
X213191500Y-133803000D01*
%TO.C,Q3*%
X98232500Y-99243000D02*
X98232500Y-98313000D01*
X98232500Y-96083000D02*
X98232500Y-97013000D01*
X98232500Y-96083000D02*
X96072500Y-96083000D01*
X98232500Y-99243000D02*
X96772500Y-99243000D01*
%TO.C,Q2*%
X97343500Y-118864500D02*
X97343500Y-117934500D01*
X97343500Y-115704500D02*
X97343500Y-116634500D01*
X97343500Y-115704500D02*
X95183500Y-115704500D01*
X97343500Y-118864500D02*
X95883500Y-118864500D01*
%TO.C,Q1*%
X92893000Y-96966500D02*
X91963000Y-96966500D01*
X89733000Y-96966500D02*
X90663000Y-96966500D01*
X89733000Y-96966500D02*
X89733000Y-99126500D01*
X92893000Y-96966500D02*
X92893000Y-98426500D01*
%TO.C,D14*%
X154940000Y-37719000D02*
X154940000Y-22479000D01*
X154940000Y-22479000D02*
X134620000Y-22479000D01*
X134620000Y-22479000D02*
X134620000Y-54229000D01*
X134620000Y-54229000D02*
X154940000Y-54229000D01*
X154940000Y-54229000D02*
X154940000Y-37719000D01*
X146030000Y-37719000D02*
G75*
G03*
X146030000Y-37719000I-1250000J0D01*
G01*
%TO.C,D13*%
X239532000Y-101257500D02*
G75*
G03*
X239532000Y-101257500I-2550000J0D01*
G01*
X237882000Y-101257500D02*
G75*
G03*
X237882000Y-101257500I-900000J0D01*
G01*
X234532000Y-100527500D02*
X175492000Y-100527500D01*
X175492000Y-100527500D02*
X175492000Y-123627500D01*
X175492000Y-123627500D02*
X241292000Y-123627500D01*
X241292000Y-123627500D02*
X241292000Y-100527500D01*
X241292000Y-100527500D02*
X239432000Y-100527500D01*
X241292000Y-102807500D02*
X239032000Y-102807500D01*
X229362000Y-99507500D02*
X231902000Y-99507500D01*
%TO.C,D11*%
X126238000Y-38163500D02*
X126238000Y-22923500D01*
X126238000Y-22923500D02*
X105918000Y-22923500D01*
X105918000Y-22923500D02*
X105918000Y-54673500D01*
X105918000Y-54673500D02*
X126238000Y-54673500D01*
X126238000Y-54673500D02*
X126238000Y-38163500D01*
X117328000Y-38163500D02*
G75*
G03*
X117328000Y-38163500I-1250000J0D01*
G01*
%TO.C,D10*%
X172904500Y-100209000D02*
X170884500Y-100209000D01*
X170884500Y-100209000D02*
X170884500Y-103889000D01*
X172904500Y-100209000D02*
X172904500Y-103889000D01*
%TO.C,D9*%
X183769000Y-38036500D02*
X183769000Y-22796500D01*
X183769000Y-22796500D02*
X163449000Y-22796500D01*
X163449000Y-22796500D02*
X163449000Y-54546500D01*
X163449000Y-54546500D02*
X183769000Y-54546500D01*
X183769000Y-54546500D02*
X183769000Y-38036500D01*
X174859000Y-38036500D02*
G75*
G03*
X174859000Y-38036500I-1250000J0D01*
G01*
%TO.C,D5*%
X154994000Y-126926000D02*
X157934000Y-126926000D01*
X157934000Y-126926000D02*
X157934000Y-121486000D01*
X157934000Y-121486000D02*
X154994000Y-121486000D01*
X154994000Y-121486000D02*
X154994000Y-126926000D01*
X156464000Y-127946000D02*
X156464000Y-126926000D01*
X156464000Y-120466000D02*
X156464000Y-121486000D01*
X154994000Y-126026000D02*
X157934000Y-126026000D01*
X154994000Y-125906000D02*
X157934000Y-125906000D01*
X154994000Y-126146000D02*
X157934000Y-126146000D01*
%TO.C,D3*%
X117446000Y-83221000D02*
X158886000Y-83221000D01*
X158886000Y-83221000D02*
X158886000Y-110661000D01*
X158886000Y-110661000D02*
X117446000Y-110661000D01*
X117446000Y-110661000D02*
X117446000Y-83221000D01*
X119666000Y-82721000D02*
X123666000Y-82721000D01*
%TO.C,D2*%
X106868500Y-89845000D02*
X106868500Y-88915000D01*
X106868500Y-86685000D02*
X106868500Y-87615000D01*
X106868500Y-86685000D02*
X104708500Y-86685000D01*
X106868500Y-89845000D02*
X105408500Y-89845000D01*
%TO.C,D1*%
X100201000Y-89845000D02*
X100201000Y-88915000D01*
X100201000Y-86685000D02*
X100201000Y-87615000D01*
X100201000Y-86685000D02*
X98041000Y-86685000D01*
X100201000Y-89845000D02*
X98741000Y-89845000D01*
%TO.C,CB1*%
X83931000Y-127293000D02*
X88431000Y-127293000D01*
X82681000Y-123293000D02*
X82681000Y-124793000D01*
X88431000Y-120793000D02*
X83931000Y-120793000D01*
X89681000Y-124793000D02*
X89681000Y-123293000D01*
D11*
%TO.C,C8*%
X167524000Y-119104000D02*
X167524000Y-122704000D01*
X167524000Y-122704000D02*
X167024000Y-123204000D01*
X167024000Y-123204000D02*
X166224000Y-123204000D01*
X166224000Y-123204000D02*
X165724000Y-122704000D01*
X165724000Y-122704000D02*
X165724000Y-119104000D01*
X165724000Y-119104000D02*
X166224000Y-118604000D01*
X166224000Y-118604000D02*
X167024000Y-118604000D01*
X167024000Y-118604000D02*
X167524000Y-119104000D01*
%TO.C,C7*%
X161903000Y-127941500D02*
X165503000Y-127941500D01*
X165503000Y-127941500D02*
X166003000Y-128441500D01*
X166003000Y-128441500D02*
X166003000Y-129241500D01*
X166003000Y-129241500D02*
X165503000Y-129741500D01*
X165503000Y-129741500D02*
X161903000Y-129741500D01*
X161903000Y-129741500D02*
X161403000Y-129241500D01*
X161403000Y-129241500D02*
X161403000Y-128441500D01*
X161403000Y-128441500D02*
X161903000Y-127941500D01*
%TO.C,C3*%
X129551000Y-125136500D02*
X129551000Y-128736500D01*
X129551000Y-128736500D02*
X129051000Y-129236500D01*
X129051000Y-129236500D02*
X128251000Y-129236500D01*
X128251000Y-129236500D02*
X127751000Y-128736500D01*
X127751000Y-128736500D02*
X127751000Y-125136500D01*
X127751000Y-125136500D02*
X128251000Y-124636500D01*
X128251000Y-124636500D02*
X129051000Y-124636500D01*
X129051000Y-124636500D02*
X129551000Y-125136500D01*
%TO.C,C2*%
X124228000Y-129106500D02*
X120628000Y-129106500D01*
X120628000Y-129106500D02*
X120128000Y-128606500D01*
X120128000Y-128606500D02*
X120128000Y-127806500D01*
X120128000Y-127806500D02*
X120628000Y-127306500D01*
X120628000Y-127306500D02*
X124228000Y-127306500D01*
X124228000Y-127306500D02*
X124728000Y-127806500D01*
X124728000Y-127806500D02*
X124728000Y-128606500D01*
X124728000Y-128606500D02*
X124228000Y-129106500D01*
%TO.C,C1*%
X102911500Y-121845500D02*
X106511500Y-121845500D01*
X106511500Y-121845500D02*
X107011500Y-122345500D01*
X107011500Y-122345500D02*
X107011500Y-123145500D01*
X107011500Y-123145500D02*
X106511500Y-123645500D01*
X106511500Y-123645500D02*
X102911500Y-123645500D01*
X102911500Y-123645500D02*
X102411500Y-123145500D01*
X102411500Y-123145500D02*
X102411500Y-122345500D01*
X102411500Y-122345500D02*
X102911500Y-121845500D01*
D10*
%TO.C,BT1*%
X78600500Y-106057500D02*
X78600500Y-96457500D01*
X78600500Y-96457500D02*
X81800500Y-96457500D01*
X81800500Y-96457500D02*
X81800500Y-106057500D01*
X81800500Y-106057500D02*
X78600500Y-106057500D01*
%TO.C,REF\u002A\u002A*%
D11*
X216503380Y-78231833D02*
X216027190Y-78565166D01*
X216503380Y-78803261D02*
X215503380Y-78803261D01*
X215503380Y-78422309D01*
X215551000Y-78327071D01*
X215598619Y-78279452D01*
X215693857Y-78231833D01*
X215836714Y-78231833D01*
X215931952Y-78279452D01*
X215979571Y-78327071D01*
X216027190Y-78422309D01*
X216027190Y-78803261D01*
X215979571Y-77803261D02*
X215979571Y-77469928D01*
X216503380Y-77327071D02*
X216503380Y-77803261D01*
X215503380Y-77803261D01*
X215503380Y-77327071D01*
X215979571Y-76565166D02*
X215979571Y-76898500D01*
X216503380Y-76898500D02*
X215503380Y-76898500D01*
X215503380Y-76422309D01*
X215503380Y-75898500D02*
X215741476Y-75898500D01*
X215646238Y-76136595D02*
X215741476Y-75898500D01*
X215646238Y-75660404D01*
X215931952Y-76041357D02*
X215741476Y-75898500D01*
X215931952Y-75755642D01*
X215503380Y-75136595D02*
X215741476Y-75136595D01*
X215646238Y-75374690D02*
X215741476Y-75136595D01*
X215646238Y-74898500D01*
X215931952Y-75279452D02*
X215741476Y-75136595D01*
X215931952Y-74993738D01*
X188563380Y-144716333D02*
X188087190Y-145049666D01*
X188563380Y-145287761D02*
X187563380Y-145287761D01*
X187563380Y-144906809D01*
X187611000Y-144811571D01*
X187658619Y-144763952D01*
X187753857Y-144716333D01*
X187896714Y-144716333D01*
X187991952Y-144763952D01*
X188039571Y-144811571D01*
X188087190Y-144906809D01*
X188087190Y-145287761D01*
X188039571Y-144287761D02*
X188039571Y-143954428D01*
X188563380Y-143811571D02*
X188563380Y-144287761D01*
X187563380Y-144287761D01*
X187563380Y-143811571D01*
X188039571Y-143049666D02*
X188039571Y-143383000D01*
X188563380Y-143383000D02*
X187563380Y-143383000D01*
X187563380Y-142906809D01*
X187563380Y-142383000D02*
X187801476Y-142383000D01*
X187706238Y-142621095D02*
X187801476Y-142383000D01*
X187706238Y-142144904D01*
X187991952Y-142525857D02*
X187801476Y-142383000D01*
X187991952Y-142240142D01*
X187563380Y-141621095D02*
X187801476Y-141621095D01*
X187706238Y-141859190D02*
X187801476Y-141621095D01*
X187706238Y-141383000D01*
X187991952Y-141763952D02*
X187801476Y-141621095D01*
X187991952Y-141478238D01*
%TO.C,D12*%
X202049214Y-21208880D02*
X202049214Y-20208880D01*
X202287309Y-20208880D01*
X202430166Y-20256500D01*
X202525404Y-20351738D01*
X202573023Y-20446976D01*
X202620642Y-20637452D01*
X202620642Y-20780309D01*
X202573023Y-20970785D01*
X202525404Y-21066023D01*
X202430166Y-21161261D01*
X202287309Y-21208880D01*
X202049214Y-21208880D01*
X203573023Y-21208880D02*
X203001595Y-21208880D01*
X203287309Y-21208880D02*
X203287309Y-20208880D01*
X203192071Y-20351738D01*
X203096833Y-20446976D01*
X203001595Y-20494595D01*
X203953976Y-20304119D02*
X204001595Y-20256500D01*
X204096833Y-20208880D01*
X204334928Y-20208880D01*
X204430166Y-20256500D01*
X204477785Y-20304119D01*
X204525404Y-20399357D01*
X204525404Y-20494595D01*
X204477785Y-20637452D01*
X203906357Y-21208880D01*
X204525404Y-21208880D01*
%TO.C,REF\u002A\u002A*%
X187864880Y-61340833D02*
X187388690Y-61674166D01*
X187864880Y-61912261D02*
X186864880Y-61912261D01*
X186864880Y-61531309D01*
X186912500Y-61436071D01*
X186960119Y-61388452D01*
X187055357Y-61340833D01*
X187198214Y-61340833D01*
X187293452Y-61388452D01*
X187341071Y-61436071D01*
X187388690Y-61531309D01*
X187388690Y-61912261D01*
X187341071Y-60912261D02*
X187341071Y-60578928D01*
X187864880Y-60436071D02*
X187864880Y-60912261D01*
X186864880Y-60912261D01*
X186864880Y-60436071D01*
X187341071Y-59674166D02*
X187341071Y-60007500D01*
X187864880Y-60007500D02*
X186864880Y-60007500D01*
X186864880Y-59531309D01*
X186864880Y-59007500D02*
X187102976Y-59007500D01*
X187007738Y-59245595D02*
X187102976Y-59007500D01*
X187007738Y-58769404D01*
X187293452Y-59150357D02*
X187102976Y-59007500D01*
X187293452Y-58864642D01*
X186864880Y-58245595D02*
X187102976Y-58245595D01*
X187007738Y-58483690D02*
X187102976Y-58245595D01*
X187007738Y-58007500D01*
X187293452Y-58388452D02*
X187102976Y-58245595D01*
X187293452Y-58102738D01*
X163226880Y-64833333D02*
X162750690Y-65166666D01*
X163226880Y-65404761D02*
X162226880Y-65404761D01*
X162226880Y-65023809D01*
X162274500Y-64928571D01*
X162322119Y-64880952D01*
X162417357Y-64833333D01*
X162560214Y-64833333D01*
X162655452Y-64880952D01*
X162703071Y-64928571D01*
X162750690Y-65023809D01*
X162750690Y-65404761D01*
X162703071Y-64404761D02*
X162703071Y-64071428D01*
X163226880Y-63928571D02*
X163226880Y-64404761D01*
X162226880Y-64404761D01*
X162226880Y-63928571D01*
X162703071Y-63166666D02*
X162703071Y-63500000D01*
X163226880Y-63500000D02*
X162226880Y-63500000D01*
X162226880Y-63023809D01*
X162226880Y-62500000D02*
X162464976Y-62500000D01*
X162369738Y-62738095D02*
X162464976Y-62500000D01*
X162369738Y-62261904D01*
X162655452Y-62642857D02*
X162464976Y-62500000D01*
X162655452Y-62357142D01*
X162226880Y-61738095D02*
X162464976Y-61738095D01*
X162369738Y-61976190D02*
X162464976Y-61738095D01*
X162369738Y-61500000D01*
X162655452Y-61880952D02*
X162464976Y-61738095D01*
X162655452Y-61595238D01*
%TO.C,U6*%
X203370380Y-88201404D02*
X204179904Y-88201404D01*
X204275142Y-88153785D01*
X204322761Y-88106166D01*
X204370380Y-88010928D01*
X204370380Y-87820452D01*
X204322761Y-87725214D01*
X204275142Y-87677595D01*
X204179904Y-87629976D01*
X203370380Y-87629976D01*
X203370380Y-86725214D02*
X203370380Y-86915690D01*
X203418000Y-87010928D01*
X203465619Y-87058547D01*
X203608476Y-87153785D01*
X203798952Y-87201404D01*
X204179904Y-87201404D01*
X204275142Y-87153785D01*
X204322761Y-87106166D01*
X204370380Y-87010928D01*
X204370380Y-86820452D01*
X204322761Y-86725214D01*
X204275142Y-86677595D01*
X204179904Y-86629976D01*
X203941809Y-86629976D01*
X203846571Y-86677595D01*
X203798952Y-86725214D01*
X203751333Y-86820452D01*
X203751333Y-87010928D01*
X203798952Y-87106166D01*
X203846571Y-87153785D01*
X203941809Y-87201404D01*
%TO.C,U5*%
X213466880Y-88137904D02*
X214276404Y-88137904D01*
X214371642Y-88090285D01*
X214419261Y-88042666D01*
X214466880Y-87947428D01*
X214466880Y-87756952D01*
X214419261Y-87661714D01*
X214371642Y-87614095D01*
X214276404Y-87566476D01*
X213466880Y-87566476D01*
X213466880Y-86614095D02*
X213466880Y-87090285D01*
X213943071Y-87137904D01*
X213895452Y-87090285D01*
X213847833Y-86995047D01*
X213847833Y-86756952D01*
X213895452Y-86661714D01*
X213943071Y-86614095D01*
X214038309Y-86566476D01*
X214276404Y-86566476D01*
X214371642Y-86614095D01*
X214419261Y-86661714D01*
X214466880Y-86756952D01*
X214466880Y-86995047D01*
X214419261Y-87090285D01*
X214371642Y-87137904D01*
%TO.C,U4*%
X223880880Y-88201404D02*
X224690404Y-88201404D01*
X224785642Y-88153785D01*
X224833261Y-88106166D01*
X224880880Y-88010928D01*
X224880880Y-87820452D01*
X224833261Y-87725214D01*
X224785642Y-87677595D01*
X224690404Y-87629976D01*
X223880880Y-87629976D01*
X224214214Y-86725214D02*
X224880880Y-86725214D01*
X223833261Y-86963309D02*
X224547547Y-87201404D01*
X224547547Y-86582357D01*
%TO.C,U3*%
X234167880Y-88264904D02*
X234977404Y-88264904D01*
X235072642Y-88217285D01*
X235120261Y-88169666D01*
X235167880Y-88074428D01*
X235167880Y-87883952D01*
X235120261Y-87788714D01*
X235072642Y-87741095D01*
X234977404Y-87693476D01*
X234167880Y-87693476D01*
X234167880Y-87312523D02*
X234167880Y-86693476D01*
X234548833Y-87026809D01*
X234548833Y-86883952D01*
X234596452Y-86788714D01*
X234644071Y-86741095D01*
X234739309Y-86693476D01*
X234977404Y-86693476D01*
X235072642Y-86741095D01*
X235120261Y-86788714D01*
X235167880Y-86883952D01*
X235167880Y-87169666D01*
X235120261Y-87264904D01*
X235072642Y-87312523D01*
%TO.C,U1*%
X140144595Y-114268880D02*
X140144595Y-115078404D01*
X140192214Y-115173642D01*
X140239833Y-115221261D01*
X140335071Y-115268880D01*
X140525547Y-115268880D01*
X140620785Y-115221261D01*
X140668404Y-115173642D01*
X140716023Y-115078404D01*
X140716023Y-114268880D01*
X141716023Y-115268880D02*
X141144595Y-115268880D01*
X141430309Y-115268880D02*
X141430309Y-114268880D01*
X141335071Y-114411738D01*
X141239833Y-114506976D01*
X141144595Y-114554595D01*
%TO.C,R15*%
X248730880Y-103957357D02*
X248254690Y-104290690D01*
X248730880Y-104528785D02*
X247730880Y-104528785D01*
X247730880Y-104147833D01*
X247778500Y-104052595D01*
X247826119Y-104004976D01*
X247921357Y-103957357D01*
X248064214Y-103957357D01*
X248159452Y-104004976D01*
X248207071Y-104052595D01*
X248254690Y-104147833D01*
X248254690Y-104528785D01*
X248730880Y-103004976D02*
X248730880Y-103576404D01*
X248730880Y-103290690D02*
X247730880Y-103290690D01*
X247873738Y-103385928D01*
X247968976Y-103481166D01*
X248016595Y-103576404D01*
X247730880Y-102100214D02*
X247730880Y-102576404D01*
X248207071Y-102624023D01*
X248159452Y-102576404D01*
X248111833Y-102481166D01*
X248111833Y-102243071D01*
X248159452Y-102147833D01*
X248207071Y-102100214D01*
X248302309Y-102052595D01*
X248540404Y-102052595D01*
X248635642Y-102100214D01*
X248683261Y-102147833D01*
X248730880Y-102243071D01*
X248730880Y-102481166D01*
X248683261Y-102576404D01*
X248635642Y-102624023D01*
X248160880Y-98496404D02*
X247160880Y-98496404D01*
X248160880Y-97924976D02*
X247589452Y-98353547D01*
X247160880Y-97924976D02*
X247732309Y-98496404D01*
%TO.C,R14*%
X193667142Y-94425880D02*
X193333809Y-93949690D01*
X193095714Y-94425880D02*
X193095714Y-93425880D01*
X193476666Y-93425880D01*
X193571904Y-93473500D01*
X193619523Y-93521119D01*
X193667142Y-93616357D01*
X193667142Y-93759214D01*
X193619523Y-93854452D01*
X193571904Y-93902071D01*
X193476666Y-93949690D01*
X193095714Y-93949690D01*
X194619523Y-94425880D02*
X194048095Y-94425880D01*
X194333809Y-94425880D02*
X194333809Y-93425880D01*
X194238571Y-93568738D01*
X194143333Y-93663976D01*
X194048095Y-93711595D01*
X195476666Y-93759214D02*
X195476666Y-94425880D01*
X195238571Y-93378261D02*
X195000476Y-94092547D01*
X195619523Y-94092547D01*
X199128095Y-93855880D02*
X199128095Y-92855880D01*
X199699523Y-93855880D02*
X199270952Y-93284452D01*
X199699523Y-92855880D02*
X199128095Y-93427309D01*
%TO.C,R13*%
X177347642Y-97410380D02*
X177014309Y-96934190D01*
X176776214Y-97410380D02*
X176776214Y-96410380D01*
X177157166Y-96410380D01*
X177252404Y-96458000D01*
X177300023Y-96505619D01*
X177347642Y-96600857D01*
X177347642Y-96743714D01*
X177300023Y-96838952D01*
X177252404Y-96886571D01*
X177157166Y-96934190D01*
X176776214Y-96934190D01*
X178300023Y-97410380D02*
X177728595Y-97410380D01*
X178014309Y-97410380D02*
X178014309Y-96410380D01*
X177919071Y-96553238D01*
X177823833Y-96648476D01*
X177728595Y-96696095D01*
X178633357Y-96410380D02*
X179252404Y-96410380D01*
X178919071Y-96791333D01*
X179061928Y-96791333D01*
X179157166Y-96838952D01*
X179204785Y-96886571D01*
X179252404Y-96981809D01*
X179252404Y-97219904D01*
X179204785Y-97315142D01*
X179157166Y-97362761D01*
X179061928Y-97410380D01*
X178776214Y-97410380D01*
X178680976Y-97362761D01*
X178633357Y-97315142D01*
X182808595Y-96840380D02*
X182808595Y-95840380D01*
X183380023Y-96840380D02*
X182951452Y-96268952D01*
X183380023Y-95840380D02*
X182808595Y-96411809D01*
%TO.C,R12*%
X177157142Y-87072880D02*
X176823809Y-86596690D01*
X176585714Y-87072880D02*
X176585714Y-86072880D01*
X176966666Y-86072880D01*
X177061904Y-86120500D01*
X177109523Y-86168119D01*
X177157142Y-86263357D01*
X177157142Y-86406214D01*
X177109523Y-86501452D01*
X177061904Y-86549071D01*
X176966666Y-86596690D01*
X176585714Y-86596690D01*
X178109523Y-87072880D02*
X177538095Y-87072880D01*
X177823809Y-87072880D02*
X177823809Y-86072880D01*
X177728571Y-86215738D01*
X177633333Y-86310976D01*
X177538095Y-86358595D01*
X178490476Y-86168119D02*
X178538095Y-86120500D01*
X178633333Y-86072880D01*
X178871428Y-86072880D01*
X178966666Y-86120500D01*
X179014285Y-86168119D01*
X179061904Y-86263357D01*
X179061904Y-86358595D01*
X179014285Y-86501452D01*
X178442857Y-87072880D01*
X179061904Y-87072880D01*
X172458095Y-87642880D02*
X172458095Y-86642880D01*
X173029523Y-87642880D02*
X172600952Y-87071452D01*
X173029523Y-86642880D02*
X172458095Y-87214309D01*
%TO.C,R7*%
X138898333Y-131954380D02*
X138565000Y-131478190D01*
X138326904Y-131954380D02*
X138326904Y-130954380D01*
X138707857Y-130954380D01*
X138803095Y-131002000D01*
X138850714Y-131049619D01*
X138898333Y-131144857D01*
X138898333Y-131287714D01*
X138850714Y-131382952D01*
X138803095Y-131430571D01*
X138707857Y-131478190D01*
X138326904Y-131478190D01*
X139231666Y-130954380D02*
X139898333Y-130954380D01*
X139469761Y-131954380D01*
X143883095Y-131384380D02*
X143883095Y-130384380D01*
X144454523Y-131384380D02*
X144025952Y-130812952D01*
X144454523Y-130384380D02*
X143883095Y-130955809D01*
%TO.C,R6*%
X153353880Y-124372666D02*
X152877690Y-124706000D01*
X153353880Y-124944095D02*
X152353880Y-124944095D01*
X152353880Y-124563142D01*
X152401500Y-124467904D01*
X152449119Y-124420285D01*
X152544357Y-124372666D01*
X152687214Y-124372666D01*
X152782452Y-124420285D01*
X152830071Y-124467904D01*
X152877690Y-124563142D01*
X152877690Y-124944095D01*
X152353880Y-123515523D02*
X152353880Y-123706000D01*
X152401500Y-123801238D01*
X152449119Y-123848857D01*
X152591976Y-123944095D01*
X152782452Y-123991714D01*
X153163404Y-123991714D01*
X153258642Y-123944095D01*
X153306261Y-123896476D01*
X153353880Y-123801238D01*
X153353880Y-123610761D01*
X153306261Y-123515523D01*
X153258642Y-123467904D01*
X153163404Y-123420285D01*
X152925309Y-123420285D01*
X152830071Y-123467904D01*
X152782452Y-123515523D01*
X152734833Y-123610761D01*
X152734833Y-123801238D01*
X152782452Y-123896476D01*
X152830071Y-123944095D01*
X152925309Y-123991714D01*
X152783880Y-119387904D02*
X151783880Y-119387904D01*
X152783880Y-118816476D02*
X152212452Y-119245047D01*
X151783880Y-118816476D02*
X152355309Y-119387904D01*
%TO.C,R5*%
X119594333Y-125540880D02*
X119261000Y-125064690D01*
X119022904Y-125540880D02*
X119022904Y-124540880D01*
X119403857Y-124540880D01*
X119499095Y-124588500D01*
X119546714Y-124636119D01*
X119594333Y-124731357D01*
X119594333Y-124874214D01*
X119546714Y-124969452D01*
X119499095Y-125017071D01*
X119403857Y-125064690D01*
X119022904Y-125064690D01*
X120499095Y-124540880D02*
X120022904Y-124540880D01*
X119975285Y-125017071D01*
X120022904Y-124969452D01*
X120118142Y-124921833D01*
X120356238Y-124921833D01*
X120451476Y-124969452D01*
X120499095Y-125017071D01*
X120546714Y-125112309D01*
X120546714Y-125350404D01*
X120499095Y-125445642D01*
X120451476Y-125493261D01*
X120356238Y-125540880D01*
X120118142Y-125540880D01*
X120022904Y-125493261D01*
X119975285Y-125445642D01*
X124579095Y-124970880D02*
X124579095Y-123970880D01*
X125150523Y-124970880D02*
X124721952Y-124399452D01*
X125150523Y-123970880D02*
X124579095Y-124542309D01*
%TO.C,R4*%
X115126880Y-112434666D02*
X114650690Y-112768000D01*
X115126880Y-113006095D02*
X114126880Y-113006095D01*
X114126880Y-112625142D01*
X114174500Y-112529904D01*
X114222119Y-112482285D01*
X114317357Y-112434666D01*
X114460214Y-112434666D01*
X114555452Y-112482285D01*
X114603071Y-112529904D01*
X114650690Y-112625142D01*
X114650690Y-113006095D01*
X114460214Y-111577523D02*
X115126880Y-111577523D01*
X114079261Y-111815619D02*
X114793547Y-112053714D01*
X114793547Y-111434666D01*
X114556880Y-107449904D02*
X113556880Y-107449904D01*
X114556880Y-106878476D02*
X113985452Y-107307047D01*
X113556880Y-106878476D02*
X114128309Y-107449904D01*
%TO.C,R3*%
X107252880Y-112625166D02*
X106776690Y-112958500D01*
X107252880Y-113196595D02*
X106252880Y-113196595D01*
X106252880Y-112815642D01*
X106300500Y-112720404D01*
X106348119Y-112672785D01*
X106443357Y-112625166D01*
X106586214Y-112625166D01*
X106681452Y-112672785D01*
X106729071Y-112720404D01*
X106776690Y-112815642D01*
X106776690Y-113196595D01*
X106252880Y-112291833D02*
X106252880Y-111672785D01*
X106633833Y-112006119D01*
X106633833Y-111863261D01*
X106681452Y-111768023D01*
X106729071Y-111720404D01*
X106824309Y-111672785D01*
X107062404Y-111672785D01*
X107157642Y-111720404D01*
X107205261Y-111768023D01*
X107252880Y-111863261D01*
X107252880Y-112148976D01*
X107205261Y-112244214D01*
X107157642Y-112291833D01*
X106682880Y-107640404D02*
X105682880Y-107640404D01*
X106682880Y-107068976D02*
X106111452Y-107497547D01*
X105682880Y-107068976D02*
X106254309Y-107640404D01*
%TO.C,R2*%
X93305333Y-105233880D02*
X92972000Y-104757690D01*
X92733904Y-105233880D02*
X92733904Y-104233880D01*
X93114857Y-104233880D01*
X93210095Y-104281500D01*
X93257714Y-104329119D01*
X93305333Y-104424357D01*
X93305333Y-104567214D01*
X93257714Y-104662452D01*
X93210095Y-104710071D01*
X93114857Y-104757690D01*
X92733904Y-104757690D01*
X93686285Y-104329119D02*
X93733904Y-104281500D01*
X93829142Y-104233880D01*
X94067238Y-104233880D01*
X94162476Y-104281500D01*
X94210095Y-104329119D01*
X94257714Y-104424357D01*
X94257714Y-104519595D01*
X94210095Y-104662452D01*
X93638666Y-105233880D01*
X94257714Y-105233880D01*
X88130095Y-105803880D02*
X88130095Y-104803880D01*
X88701523Y-105803880D02*
X88272952Y-105232452D01*
X88701523Y-104803880D02*
X88130095Y-105375309D01*
%TO.C,R1*%
X86383833Y-118746380D02*
X86050500Y-118270190D01*
X85812404Y-118746380D02*
X85812404Y-117746380D01*
X86193357Y-117746380D01*
X86288595Y-117794000D01*
X86336214Y-117841619D01*
X86383833Y-117936857D01*
X86383833Y-118079714D01*
X86336214Y-118174952D01*
X86288595Y-118222571D01*
X86193357Y-118270190D01*
X85812404Y-118270190D01*
X87336214Y-118746380D02*
X86764785Y-118746380D01*
X87050500Y-118746380D02*
X87050500Y-117746380D01*
X86955261Y-117889238D01*
X86860023Y-117984476D01*
X86764785Y-118032095D01*
X91368595Y-118176380D02*
X91368595Y-117176380D01*
X91940023Y-118176380D02*
X91511452Y-117604952D01*
X91940023Y-117176380D02*
X91368595Y-117747809D01*
%TO.C,Q15*%
X172974071Y-136187619D02*
X172878833Y-136140000D01*
X172783595Y-136044761D01*
X172640738Y-135901904D01*
X172545500Y-135854285D01*
X172450261Y-135854285D01*
X172497880Y-136092380D02*
X172402642Y-136044761D01*
X172307404Y-135949523D01*
X172259785Y-135759047D01*
X172259785Y-135425714D01*
X172307404Y-135235238D01*
X172402642Y-135140000D01*
X172497880Y-135092380D01*
X172688357Y-135092380D01*
X172783595Y-135140000D01*
X172878833Y-135235238D01*
X172926452Y-135425714D01*
X172926452Y-135759047D01*
X172878833Y-135949523D01*
X172783595Y-136044761D01*
X172688357Y-136092380D01*
X172497880Y-136092380D01*
X173878833Y-136092380D02*
X173307404Y-136092380D01*
X173593119Y-136092380D02*
X173593119Y-135092380D01*
X173497880Y-135235238D01*
X173402642Y-135330476D01*
X173307404Y-135378095D01*
X174783595Y-135092380D02*
X174307404Y-135092380D01*
X174259785Y-135568571D01*
X174307404Y-135520952D01*
X174402642Y-135473333D01*
X174640738Y-135473333D01*
X174735976Y-135520952D01*
X174783595Y-135568571D01*
X174831214Y-135663809D01*
X174831214Y-135901904D01*
X174783595Y-135997142D01*
X174735976Y-136044761D01*
X174640738Y-136092380D01*
X174402642Y-136092380D01*
X174307404Y-136044761D01*
X174259785Y-135997142D01*
%TO.C,Q14*%
X180022571Y-136187619D02*
X179927333Y-136140000D01*
X179832095Y-136044761D01*
X179689238Y-135901904D01*
X179594000Y-135854285D01*
X179498761Y-135854285D01*
X179546380Y-136092380D02*
X179451142Y-136044761D01*
X179355904Y-135949523D01*
X179308285Y-135759047D01*
X179308285Y-135425714D01*
X179355904Y-135235238D01*
X179451142Y-135140000D01*
X179546380Y-135092380D01*
X179736857Y-135092380D01*
X179832095Y-135140000D01*
X179927333Y-135235238D01*
X179974952Y-135425714D01*
X179974952Y-135759047D01*
X179927333Y-135949523D01*
X179832095Y-136044761D01*
X179736857Y-136092380D01*
X179546380Y-136092380D01*
X180927333Y-136092380D02*
X180355904Y-136092380D01*
X180641619Y-136092380D02*
X180641619Y-135092380D01*
X180546380Y-135235238D01*
X180451142Y-135330476D01*
X180355904Y-135378095D01*
X181784476Y-135425714D02*
X181784476Y-136092380D01*
X181546380Y-135044761D02*
X181308285Y-135759047D01*
X181927333Y-135759047D01*
%TO.C,Q13*%
X187516071Y-136209119D02*
X187420833Y-136161500D01*
X187325595Y-136066261D01*
X187182738Y-135923404D01*
X187087500Y-135875785D01*
X186992261Y-135875785D01*
X187039880Y-136113880D02*
X186944642Y-136066261D01*
X186849404Y-135971023D01*
X186801785Y-135780547D01*
X186801785Y-135447214D01*
X186849404Y-135256738D01*
X186944642Y-135161500D01*
X187039880Y-135113880D01*
X187230357Y-135113880D01*
X187325595Y-135161500D01*
X187420833Y-135256738D01*
X187468452Y-135447214D01*
X187468452Y-135780547D01*
X187420833Y-135971023D01*
X187325595Y-136066261D01*
X187230357Y-136113880D01*
X187039880Y-136113880D01*
X188420833Y-136113880D02*
X187849404Y-136113880D01*
X188135119Y-136113880D02*
X188135119Y-135113880D01*
X188039880Y-135256738D01*
X187944642Y-135351976D01*
X187849404Y-135399595D01*
X188754166Y-135113880D02*
X189373214Y-135113880D01*
X189039880Y-135494833D01*
X189182738Y-135494833D01*
X189277976Y-135542452D01*
X189325595Y-135590071D01*
X189373214Y-135685309D01*
X189373214Y-135923404D01*
X189325595Y-136018642D01*
X189277976Y-136066261D01*
X189182738Y-136113880D01*
X188897023Y-136113880D01*
X188801785Y-136066261D01*
X188754166Y-136018642D01*
%TO.C,Q12*%
X195389571Y-136060619D02*
X195294333Y-136013000D01*
X195199095Y-135917761D01*
X195056238Y-135774904D01*
X194961000Y-135727285D01*
X194865761Y-135727285D01*
X194913380Y-135965380D02*
X194818142Y-135917761D01*
X194722904Y-135822523D01*
X194675285Y-135632047D01*
X194675285Y-135298714D01*
X194722904Y-135108238D01*
X194818142Y-135013000D01*
X194913380Y-134965380D01*
X195103857Y-134965380D01*
X195199095Y-135013000D01*
X195294333Y-135108238D01*
X195341952Y-135298714D01*
X195341952Y-135632047D01*
X195294333Y-135822523D01*
X195199095Y-135917761D01*
X195103857Y-135965380D01*
X194913380Y-135965380D01*
X196294333Y-135965380D02*
X195722904Y-135965380D01*
X196008619Y-135965380D02*
X196008619Y-134965380D01*
X195913380Y-135108238D01*
X195818142Y-135203476D01*
X195722904Y-135251095D01*
X196675285Y-135060619D02*
X196722904Y-135013000D01*
X196818142Y-134965380D01*
X197056238Y-134965380D01*
X197151476Y-135013000D01*
X197199095Y-135060619D01*
X197246714Y-135155857D01*
X197246714Y-135251095D01*
X197199095Y-135393952D01*
X196627666Y-135965380D01*
X197246714Y-135965380D01*
%TO.C,Q11*%
X203073071Y-136124119D02*
X202977833Y-136076500D01*
X202882595Y-135981261D01*
X202739738Y-135838404D01*
X202644500Y-135790785D01*
X202549261Y-135790785D01*
X202596880Y-136028880D02*
X202501642Y-135981261D01*
X202406404Y-135886023D01*
X202358785Y-135695547D01*
X202358785Y-135362214D01*
X202406404Y-135171738D01*
X202501642Y-135076500D01*
X202596880Y-135028880D01*
X202787357Y-135028880D01*
X202882595Y-135076500D01*
X202977833Y-135171738D01*
X203025452Y-135362214D01*
X203025452Y-135695547D01*
X202977833Y-135886023D01*
X202882595Y-135981261D01*
X202787357Y-136028880D01*
X202596880Y-136028880D01*
X203977833Y-136028880D02*
X203406404Y-136028880D01*
X203692119Y-136028880D02*
X203692119Y-135028880D01*
X203596880Y-135171738D01*
X203501642Y-135266976D01*
X203406404Y-135314595D01*
X204930214Y-136028880D02*
X204358785Y-136028880D01*
X204644500Y-136028880D02*
X204644500Y-135028880D01*
X204549261Y-135171738D01*
X204454023Y-135266976D01*
X204358785Y-135314595D01*
%TO.C,Q10*%
X224663071Y-129258119D02*
X224567833Y-129210500D01*
X224472595Y-129115261D01*
X224329738Y-128972404D01*
X224234500Y-128924785D01*
X224139261Y-128924785D01*
X224186880Y-129162880D02*
X224091642Y-129115261D01*
X223996404Y-129020023D01*
X223948785Y-128829547D01*
X223948785Y-128496214D01*
X223996404Y-128305738D01*
X224091642Y-128210500D01*
X224186880Y-128162880D01*
X224377357Y-128162880D01*
X224472595Y-128210500D01*
X224567833Y-128305738D01*
X224615452Y-128496214D01*
X224615452Y-128829547D01*
X224567833Y-129020023D01*
X224472595Y-129115261D01*
X224377357Y-129162880D01*
X224186880Y-129162880D01*
X225567833Y-129162880D02*
X224996404Y-129162880D01*
X225282119Y-129162880D02*
X225282119Y-128162880D01*
X225186880Y-128305738D01*
X225091642Y-128400976D01*
X224996404Y-128448595D01*
X226186880Y-128162880D02*
X226282119Y-128162880D01*
X226377357Y-128210500D01*
X226424976Y-128258119D01*
X226472595Y-128353357D01*
X226520214Y-128543833D01*
X226520214Y-128781928D01*
X226472595Y-128972404D01*
X226424976Y-129067642D01*
X226377357Y-129115261D01*
X226282119Y-129162880D01*
X226186880Y-129162880D01*
X226091642Y-129115261D01*
X226044023Y-129067642D01*
X225996404Y-128972404D01*
X225948785Y-128781928D01*
X225948785Y-128543833D01*
X225996404Y-128353357D01*
X226044023Y-128258119D01*
X226091642Y-128210500D01*
X226186880Y-128162880D01*
%TO.C,Q9*%
X233013261Y-129258119D02*
X232918023Y-129210500D01*
X232822785Y-129115261D01*
X232679928Y-128972404D01*
X232584690Y-128924785D01*
X232489452Y-128924785D01*
X232537071Y-129162880D02*
X232441833Y-129115261D01*
X232346595Y-129020023D01*
X232298976Y-128829547D01*
X232298976Y-128496214D01*
X232346595Y-128305738D01*
X232441833Y-128210500D01*
X232537071Y-128162880D01*
X232727547Y-128162880D01*
X232822785Y-128210500D01*
X232918023Y-128305738D01*
X232965642Y-128496214D01*
X232965642Y-128829547D01*
X232918023Y-129020023D01*
X232822785Y-129115261D01*
X232727547Y-129162880D01*
X232537071Y-129162880D01*
X233441833Y-129162880D02*
X233632309Y-129162880D01*
X233727547Y-129115261D01*
X233775166Y-129067642D01*
X233870404Y-128924785D01*
X233918023Y-128734309D01*
X233918023Y-128353357D01*
X233870404Y-128258119D01*
X233822785Y-128210500D01*
X233727547Y-128162880D01*
X233537071Y-128162880D01*
X233441833Y-128210500D01*
X233394214Y-128258119D01*
X233346595Y-128353357D01*
X233346595Y-128591452D01*
X233394214Y-128686690D01*
X233441833Y-128734309D01*
X233537071Y-128781928D01*
X233727547Y-128781928D01*
X233822785Y-128734309D01*
X233870404Y-128686690D01*
X233918023Y-128591452D01*
%TO.C,Q8*%
X240379261Y-129321619D02*
X240284023Y-129274000D01*
X240188785Y-129178761D01*
X240045928Y-129035904D01*
X239950690Y-128988285D01*
X239855452Y-128988285D01*
X239903071Y-129226380D02*
X239807833Y-129178761D01*
X239712595Y-129083523D01*
X239664976Y-128893047D01*
X239664976Y-128559714D01*
X239712595Y-128369238D01*
X239807833Y-128274000D01*
X239903071Y-128226380D01*
X240093547Y-128226380D01*
X240188785Y-128274000D01*
X240284023Y-128369238D01*
X240331642Y-128559714D01*
X240331642Y-128893047D01*
X240284023Y-129083523D01*
X240188785Y-129178761D01*
X240093547Y-129226380D01*
X239903071Y-129226380D01*
X240903071Y-128654952D02*
X240807833Y-128607333D01*
X240760214Y-128559714D01*
X240712595Y-128464476D01*
X240712595Y-128416857D01*
X240760214Y-128321619D01*
X240807833Y-128274000D01*
X240903071Y-128226380D01*
X241093547Y-128226380D01*
X241188785Y-128274000D01*
X241236404Y-128321619D01*
X241284023Y-128416857D01*
X241284023Y-128464476D01*
X241236404Y-128559714D01*
X241188785Y-128607333D01*
X241093547Y-128654952D01*
X240903071Y-128654952D01*
X240807833Y-128702571D01*
X240760214Y-128750190D01*
X240712595Y-128845428D01*
X240712595Y-129035904D01*
X240760214Y-129131142D01*
X240807833Y-129178761D01*
X240903071Y-129226380D01*
X241093547Y-129226380D01*
X241188785Y-129178761D01*
X241236404Y-129131142D01*
X241284023Y-129035904D01*
X241284023Y-128845428D01*
X241236404Y-128750190D01*
X241188785Y-128702571D01*
X241093547Y-128654952D01*
%TO.C,Q7*%
X218154261Y-129194619D02*
X218059023Y-129147000D01*
X217963785Y-129051761D01*
X217820928Y-128908904D01*
X217725690Y-128861285D01*
X217630452Y-128861285D01*
X217678071Y-129099380D02*
X217582833Y-129051761D01*
X217487595Y-128956523D01*
X217439976Y-128766047D01*
X217439976Y-128432714D01*
X217487595Y-128242238D01*
X217582833Y-128147000D01*
X217678071Y-128099380D01*
X217868547Y-128099380D01*
X217963785Y-128147000D01*
X218059023Y-128242238D01*
X218106642Y-128432714D01*
X218106642Y-128766047D01*
X218059023Y-128956523D01*
X217963785Y-129051761D01*
X217868547Y-129099380D01*
X217678071Y-129099380D01*
X218439976Y-128099380D02*
X219106642Y-128099380D01*
X218678071Y-129099380D01*
%TO.C,Q6*%
X211296261Y-128940619D02*
X211201023Y-128893000D01*
X211105785Y-128797761D01*
X210962928Y-128654904D01*
X210867690Y-128607285D01*
X210772452Y-128607285D01*
X210820071Y-128845380D02*
X210724833Y-128797761D01*
X210629595Y-128702523D01*
X210581976Y-128512047D01*
X210581976Y-128178714D01*
X210629595Y-127988238D01*
X210724833Y-127893000D01*
X210820071Y-127845380D01*
X211010547Y-127845380D01*
X211105785Y-127893000D01*
X211201023Y-127988238D01*
X211248642Y-128178714D01*
X211248642Y-128512047D01*
X211201023Y-128702523D01*
X211105785Y-128797761D01*
X211010547Y-128845380D01*
X210820071Y-128845380D01*
X212105785Y-127845380D02*
X211915309Y-127845380D01*
X211820071Y-127893000D01*
X211772452Y-127940619D01*
X211677214Y-128083476D01*
X211629595Y-128273952D01*
X211629595Y-128654904D01*
X211677214Y-128750142D01*
X211724833Y-128797761D01*
X211820071Y-128845380D01*
X212010547Y-128845380D01*
X212105785Y-128797761D01*
X212153404Y-128750142D01*
X212201023Y-128654904D01*
X212201023Y-128416809D01*
X212153404Y-128321571D01*
X212105785Y-128273952D01*
X212010547Y-128226333D01*
X211820071Y-128226333D01*
X211724833Y-128273952D01*
X211677214Y-128321571D01*
X211629595Y-128416809D01*
%TO.C,Q3*%
X97377261Y-95710619D02*
X97282023Y-95663000D01*
X97186785Y-95567761D01*
X97043928Y-95424904D01*
X96948690Y-95377285D01*
X96853452Y-95377285D01*
X96901071Y-95615380D02*
X96805833Y-95567761D01*
X96710595Y-95472523D01*
X96662976Y-95282047D01*
X96662976Y-94948714D01*
X96710595Y-94758238D01*
X96805833Y-94663000D01*
X96901071Y-94615380D01*
X97091547Y-94615380D01*
X97186785Y-94663000D01*
X97282023Y-94758238D01*
X97329642Y-94948714D01*
X97329642Y-95282047D01*
X97282023Y-95472523D01*
X97186785Y-95567761D01*
X97091547Y-95615380D01*
X96901071Y-95615380D01*
X97662976Y-94615380D02*
X98282023Y-94615380D01*
X97948690Y-94996333D01*
X98091547Y-94996333D01*
X98186785Y-95043952D01*
X98234404Y-95091571D01*
X98282023Y-95186809D01*
X98282023Y-95424904D01*
X98234404Y-95520142D01*
X98186785Y-95567761D01*
X98091547Y-95615380D01*
X97805833Y-95615380D01*
X97710595Y-95567761D01*
X97662976Y-95520142D01*
%TO.C,Q2*%
X96488261Y-115332119D02*
X96393023Y-115284500D01*
X96297785Y-115189261D01*
X96154928Y-115046404D01*
X96059690Y-114998785D01*
X95964452Y-114998785D01*
X96012071Y-115236880D02*
X95916833Y-115189261D01*
X95821595Y-115094023D01*
X95773976Y-114903547D01*
X95773976Y-114570214D01*
X95821595Y-114379738D01*
X95916833Y-114284500D01*
X96012071Y-114236880D01*
X96202547Y-114236880D01*
X96297785Y-114284500D01*
X96393023Y-114379738D01*
X96440642Y-114570214D01*
X96440642Y-114903547D01*
X96393023Y-115094023D01*
X96297785Y-115189261D01*
X96202547Y-115236880D01*
X96012071Y-115236880D01*
X96821595Y-114332119D02*
X96869214Y-114284500D01*
X96964452Y-114236880D01*
X97202547Y-114236880D01*
X97297785Y-114284500D01*
X97345404Y-114332119D01*
X97393023Y-114427357D01*
X97393023Y-114522595D01*
X97345404Y-114665452D01*
X96773976Y-115236880D01*
X97393023Y-115236880D01*
%TO.C,Q1*%
X89360619Y-97821738D02*
X89313000Y-97916976D01*
X89217761Y-98012214D01*
X89074904Y-98155071D01*
X89027285Y-98250309D01*
X89027285Y-98345547D01*
X89265380Y-98297928D02*
X89217761Y-98393166D01*
X89122523Y-98488404D01*
X88932047Y-98536023D01*
X88598714Y-98536023D01*
X88408238Y-98488404D01*
X88313000Y-98393166D01*
X88265380Y-98297928D01*
X88265380Y-98107452D01*
X88313000Y-98012214D01*
X88408238Y-97916976D01*
X88598714Y-97869357D01*
X88932047Y-97869357D01*
X89122523Y-97916976D01*
X89217761Y-98012214D01*
X89265380Y-98107452D01*
X89265380Y-98297928D01*
X89265380Y-96916976D02*
X89265380Y-97488404D01*
X89265380Y-97202690D02*
X88265380Y-97202690D01*
X88408238Y-97297928D01*
X88503476Y-97393166D01*
X88551095Y-97488404D01*
%TO.C,D14*%
X143565714Y-20891380D02*
X143565714Y-19891380D01*
X143803809Y-19891380D01*
X143946666Y-19939000D01*
X144041904Y-20034238D01*
X144089523Y-20129476D01*
X144137142Y-20319952D01*
X144137142Y-20462809D01*
X144089523Y-20653285D01*
X144041904Y-20748523D01*
X143946666Y-20843761D01*
X143803809Y-20891380D01*
X143565714Y-20891380D01*
X145089523Y-20891380D02*
X144518095Y-20891380D01*
X144803809Y-20891380D02*
X144803809Y-19891380D01*
X144708571Y-20034238D01*
X144613333Y-20129476D01*
X144518095Y-20177095D01*
X145946666Y-20224714D02*
X145946666Y-20891380D01*
X145708571Y-19843761D02*
X145470476Y-20558047D01*
X146089523Y-20558047D01*
%TO.C,D13*%
X242644380Y-113291785D02*
X241644380Y-113291785D01*
X241644380Y-113053690D01*
X241692000Y-112910833D01*
X241787238Y-112815595D01*
X241882476Y-112767976D01*
X242072952Y-112720357D01*
X242215809Y-112720357D01*
X242406285Y-112767976D01*
X242501523Y-112815595D01*
X242596761Y-112910833D01*
X242644380Y-113053690D01*
X242644380Y-113291785D01*
X242644380Y-111767976D02*
X242644380Y-112339404D01*
X242644380Y-112053690D02*
X241644380Y-112053690D01*
X241787238Y-112148928D01*
X241882476Y-112244166D01*
X241930095Y-112339404D01*
X241644380Y-111434642D02*
X241644380Y-110815595D01*
X242025333Y-111148928D01*
X242025333Y-111006071D01*
X242072952Y-110910833D01*
X242120571Y-110863214D01*
X242215809Y-110815595D01*
X242453904Y-110815595D01*
X242549142Y-110863214D01*
X242596761Y-110910833D01*
X242644380Y-111006071D01*
X242644380Y-111291785D01*
X242596761Y-111387023D01*
X242549142Y-111434642D01*
%TO.C,D11*%
X114863714Y-21335880D02*
X114863714Y-20335880D01*
X115101809Y-20335880D01*
X115244666Y-20383500D01*
X115339904Y-20478738D01*
X115387523Y-20573976D01*
X115435142Y-20764452D01*
X115435142Y-20907309D01*
X115387523Y-21097785D01*
X115339904Y-21193023D01*
X115244666Y-21288261D01*
X115101809Y-21335880D01*
X114863714Y-21335880D01*
X116387523Y-21335880D02*
X115816095Y-21335880D01*
X116101809Y-21335880D02*
X116101809Y-20335880D01*
X116006571Y-20478738D01*
X115911333Y-20573976D01*
X115816095Y-20621595D01*
X117339904Y-21335880D02*
X116768476Y-21335880D01*
X117054190Y-21335880D02*
X117054190Y-20335880D01*
X116958952Y-20478738D01*
X116863714Y-20573976D01*
X116768476Y-20621595D01*
%TO.C,D10*%
X174346880Y-103703285D02*
X173346880Y-103703285D01*
X173346880Y-103465190D01*
X173394500Y-103322333D01*
X173489738Y-103227095D01*
X173584976Y-103179476D01*
X173775452Y-103131857D01*
X173918309Y-103131857D01*
X174108785Y-103179476D01*
X174204023Y-103227095D01*
X174299261Y-103322333D01*
X174346880Y-103465190D01*
X174346880Y-103703285D01*
X174346880Y-102179476D02*
X174346880Y-102750904D01*
X174346880Y-102465190D02*
X173346880Y-102465190D01*
X173489738Y-102560428D01*
X173584976Y-102655666D01*
X173632595Y-102750904D01*
X173346880Y-101560428D02*
X173346880Y-101465190D01*
X173394500Y-101369952D01*
X173442119Y-101322333D01*
X173537357Y-101274714D01*
X173727833Y-101227095D01*
X173965928Y-101227095D01*
X174156404Y-101274714D01*
X174251642Y-101322333D01*
X174299261Y-101369952D01*
X174346880Y-101465190D01*
X174346880Y-101560428D01*
X174299261Y-101655666D01*
X174251642Y-101703285D01*
X174156404Y-101750904D01*
X173965928Y-101798523D01*
X173727833Y-101798523D01*
X173537357Y-101750904D01*
X173442119Y-101703285D01*
X173394500Y-101655666D01*
X173346880Y-101560428D01*
%TO.C,D9*%
X172870904Y-21208880D02*
X172870904Y-20208880D01*
X173109000Y-20208880D01*
X173251857Y-20256500D01*
X173347095Y-20351738D01*
X173394714Y-20446976D01*
X173442333Y-20637452D01*
X173442333Y-20780309D01*
X173394714Y-20970785D01*
X173347095Y-21066023D01*
X173251857Y-21161261D01*
X173109000Y-21208880D01*
X172870904Y-21208880D01*
X173918523Y-21208880D02*
X174109000Y-21208880D01*
X174204238Y-21161261D01*
X174251857Y-21113642D01*
X174347095Y-20970785D01*
X174394714Y-20780309D01*
X174394714Y-20399357D01*
X174347095Y-20304119D01*
X174299476Y-20256500D01*
X174204238Y-20208880D01*
X174013761Y-20208880D01*
X173918523Y-20256500D01*
X173870904Y-20304119D01*
X173823285Y-20399357D01*
X173823285Y-20637452D01*
X173870904Y-20732690D01*
X173918523Y-20780309D01*
X174013761Y-20827928D01*
X174204238Y-20827928D01*
X174299476Y-20780309D01*
X174347095Y-20732690D01*
X174394714Y-20637452D01*
%TO.C,D5*%
X154446380Y-124944095D02*
X153446380Y-124944095D01*
X153446380Y-124706000D01*
X153494000Y-124563142D01*
X153589238Y-124467904D01*
X153684476Y-124420285D01*
X153874952Y-124372666D01*
X154017809Y-124372666D01*
X154208285Y-124420285D01*
X154303523Y-124467904D01*
X154398761Y-124563142D01*
X154446380Y-124706000D01*
X154446380Y-124944095D01*
X153446380Y-123467904D02*
X153446380Y-123944095D01*
X153922571Y-123991714D01*
X153874952Y-123944095D01*
X153827333Y-123848857D01*
X153827333Y-123610761D01*
X153874952Y-123515523D01*
X153922571Y-123467904D01*
X154017809Y-123420285D01*
X154255904Y-123420285D01*
X154351142Y-123467904D01*
X154398761Y-123515523D01*
X154446380Y-123610761D01*
X154446380Y-123848857D01*
X154398761Y-123944095D01*
X154351142Y-123991714D01*
X154816380Y-129547904D02*
X153816380Y-129547904D01*
X154816380Y-128976476D02*
X154244952Y-129405047D01*
X153816380Y-128976476D02*
X154387809Y-129547904D01*
%TO.C,D3*%
X118897904Y-82183380D02*
X118897904Y-81183380D01*
X119136000Y-81183380D01*
X119278857Y-81231000D01*
X119374095Y-81326238D01*
X119421714Y-81421476D01*
X119469333Y-81611952D01*
X119469333Y-81754809D01*
X119421714Y-81945285D01*
X119374095Y-82040523D01*
X119278857Y-82135761D01*
X119136000Y-82183380D01*
X118897904Y-82183380D01*
X119802666Y-81183380D02*
X120421714Y-81183380D01*
X120088380Y-81564333D01*
X120231238Y-81564333D01*
X120326476Y-81611952D01*
X120374095Y-81659571D01*
X120421714Y-81754809D01*
X120421714Y-81992904D01*
X120374095Y-82088142D01*
X120326476Y-82135761D01*
X120231238Y-82183380D01*
X119945523Y-82183380D01*
X119850285Y-82135761D01*
X119802666Y-82088142D01*
%TO.C,D2*%
X105370404Y-86217380D02*
X105370404Y-85217380D01*
X105608500Y-85217380D01*
X105751357Y-85265000D01*
X105846595Y-85360238D01*
X105894214Y-85455476D01*
X105941833Y-85645952D01*
X105941833Y-85788809D01*
X105894214Y-85979285D01*
X105846595Y-86074523D01*
X105751357Y-86169761D01*
X105608500Y-86217380D01*
X105370404Y-86217380D01*
X106322785Y-85312619D02*
X106370404Y-85265000D01*
X106465642Y-85217380D01*
X106703738Y-85217380D01*
X106798976Y-85265000D01*
X106846595Y-85312619D01*
X106894214Y-85407857D01*
X106894214Y-85503095D01*
X106846595Y-85645952D01*
X106275166Y-86217380D01*
X106894214Y-86217380D01*
%TO.C,D1*%
X98702904Y-86217380D02*
X98702904Y-85217380D01*
X98941000Y-85217380D01*
X99083857Y-85265000D01*
X99179095Y-85360238D01*
X99226714Y-85455476D01*
X99274333Y-85645952D01*
X99274333Y-85788809D01*
X99226714Y-85979285D01*
X99179095Y-86074523D01*
X99083857Y-86169761D01*
X98941000Y-86217380D01*
X98702904Y-86217380D01*
X100226714Y-86217380D02*
X99655285Y-86217380D01*
X99941000Y-86217380D02*
X99941000Y-85217380D01*
X99845761Y-85360238D01*
X99750523Y-85455476D01*
X99655285Y-85503095D01*
%TO.C,CB1*%
X85514333Y-120150142D02*
X85466714Y-120197761D01*
X85323857Y-120245380D01*
X85228619Y-120245380D01*
X85085761Y-120197761D01*
X84990523Y-120102523D01*
X84942904Y-120007285D01*
X84895285Y-119816809D01*
X84895285Y-119673952D01*
X84942904Y-119483476D01*
X84990523Y-119388238D01*
X85085761Y-119293000D01*
X85228619Y-119245380D01*
X85323857Y-119245380D01*
X85466714Y-119293000D01*
X85514333Y-119340619D01*
X86276238Y-119721571D02*
X86419095Y-119769190D01*
X86466714Y-119816809D01*
X86514333Y-119912047D01*
X86514333Y-120054904D01*
X86466714Y-120150142D01*
X86419095Y-120197761D01*
X86323857Y-120245380D01*
X85942904Y-120245380D01*
X85942904Y-119245380D01*
X86276238Y-119245380D01*
X86371476Y-119293000D01*
X86419095Y-119340619D01*
X86466714Y-119435857D01*
X86466714Y-119531095D01*
X86419095Y-119626333D01*
X86371476Y-119673952D01*
X86276238Y-119721571D01*
X85942904Y-119721571D01*
X87466714Y-120245380D02*
X86895285Y-120245380D01*
X87181000Y-120245380D02*
X87181000Y-119245380D01*
X87085761Y-119388238D01*
X86990523Y-119483476D01*
X86895285Y-119531095D01*
%TO.C,C8*%
X168981142Y-121100666D02*
X169028761Y-121148285D01*
X169076380Y-121291142D01*
X169076380Y-121386380D01*
X169028761Y-121529238D01*
X168933523Y-121624476D01*
X168838285Y-121672095D01*
X168647809Y-121719714D01*
X168504952Y-121719714D01*
X168314476Y-121672095D01*
X168219238Y-121624476D01*
X168124000Y-121529238D01*
X168076380Y-121386380D01*
X168076380Y-121291142D01*
X168124000Y-121148285D01*
X168171619Y-121100666D01*
X168504952Y-120529238D02*
X168457333Y-120624476D01*
X168409714Y-120672095D01*
X168314476Y-120719714D01*
X168266857Y-120719714D01*
X168171619Y-120672095D01*
X168124000Y-120624476D01*
X168076380Y-120529238D01*
X168076380Y-120338761D01*
X168124000Y-120243523D01*
X168171619Y-120195904D01*
X168266857Y-120148285D01*
X168314476Y-120148285D01*
X168409714Y-120195904D01*
X168457333Y-120243523D01*
X168504952Y-120338761D01*
X168504952Y-120529238D01*
X168552571Y-120624476D01*
X168600190Y-120672095D01*
X168695428Y-120719714D01*
X168885904Y-120719714D01*
X168981142Y-120672095D01*
X169028761Y-120624476D01*
X169076380Y-120529238D01*
X169076380Y-120338761D01*
X169028761Y-120243523D01*
X168981142Y-120195904D01*
X168885904Y-120148285D01*
X168695428Y-120148285D01*
X168600190Y-120195904D01*
X168552571Y-120243523D01*
X168504952Y-120338761D01*
%TO.C,C7*%
X163566333Y-127198642D02*
X163518714Y-127246261D01*
X163375857Y-127293880D01*
X163280619Y-127293880D01*
X163137761Y-127246261D01*
X163042523Y-127151023D01*
X162994904Y-127055785D01*
X162947285Y-126865309D01*
X162947285Y-126722452D01*
X162994904Y-126531976D01*
X163042523Y-126436738D01*
X163137761Y-126341500D01*
X163280619Y-126293880D01*
X163375857Y-126293880D01*
X163518714Y-126341500D01*
X163566333Y-126389119D01*
X163899666Y-126293880D02*
X164566333Y-126293880D01*
X164137761Y-127293880D01*
%TO.C,C3*%
X131008142Y-127133166D02*
X131055761Y-127180785D01*
X131103380Y-127323642D01*
X131103380Y-127418880D01*
X131055761Y-127561738D01*
X130960523Y-127656976D01*
X130865285Y-127704595D01*
X130674809Y-127752214D01*
X130531952Y-127752214D01*
X130341476Y-127704595D01*
X130246238Y-127656976D01*
X130151000Y-127561738D01*
X130103380Y-127418880D01*
X130103380Y-127323642D01*
X130151000Y-127180785D01*
X130198619Y-127133166D01*
X130103380Y-126799833D02*
X130103380Y-126180785D01*
X130484333Y-126514119D01*
X130484333Y-126371261D01*
X130531952Y-126276023D01*
X130579571Y-126228404D01*
X130674809Y-126180785D01*
X130912904Y-126180785D01*
X131008142Y-126228404D01*
X131055761Y-126276023D01*
X131103380Y-126371261D01*
X131103380Y-126656976D01*
X131055761Y-126752214D01*
X131008142Y-126799833D01*
%TO.C,C2*%
X122231333Y-130563642D02*
X122183714Y-130611261D01*
X122040857Y-130658880D01*
X121945619Y-130658880D01*
X121802761Y-130611261D01*
X121707523Y-130516023D01*
X121659904Y-130420785D01*
X121612285Y-130230309D01*
X121612285Y-130087452D01*
X121659904Y-129896976D01*
X121707523Y-129801738D01*
X121802761Y-129706500D01*
X121945619Y-129658880D01*
X122040857Y-129658880D01*
X122183714Y-129706500D01*
X122231333Y-129754119D01*
X122612285Y-129754119D02*
X122659904Y-129706500D01*
X122755142Y-129658880D01*
X122993238Y-129658880D01*
X123088476Y-129706500D01*
X123136095Y-129754119D01*
X123183714Y-129849357D01*
X123183714Y-129944595D01*
X123136095Y-130087452D01*
X122564666Y-130658880D01*
X123183714Y-130658880D01*
%TO.C,C1*%
X104574833Y-121102642D02*
X104527214Y-121150261D01*
X104384357Y-121197880D01*
X104289119Y-121197880D01*
X104146261Y-121150261D01*
X104051023Y-121055023D01*
X104003404Y-120959785D01*
X103955785Y-120769309D01*
X103955785Y-120626452D01*
X104003404Y-120435976D01*
X104051023Y-120340738D01*
X104146261Y-120245500D01*
X104289119Y-120197880D01*
X104384357Y-120197880D01*
X104527214Y-120245500D01*
X104574833Y-120293119D01*
X105527214Y-121197880D02*
X104955785Y-121197880D01*
X105241500Y-121197880D02*
X105241500Y-120197880D01*
X105146261Y-120340738D01*
X105051023Y-120435976D01*
X104955785Y-120483595D01*
%TO.C,BT1*%
X82529071Y-101943214D02*
X82576690Y-101800357D01*
X82624309Y-101752738D01*
X82719547Y-101705119D01*
X82862404Y-101705119D01*
X82957642Y-101752738D01*
X83005261Y-101800357D01*
X83052880Y-101895595D01*
X83052880Y-102276547D01*
X82052880Y-102276547D01*
X82052880Y-101943214D01*
X82100500Y-101847976D01*
X82148119Y-101800357D01*
X82243357Y-101752738D01*
X82338595Y-101752738D01*
X82433833Y-101800357D01*
X82481452Y-101847976D01*
X82529071Y-101943214D01*
X82529071Y-102276547D01*
X82052880Y-101419404D02*
X82052880Y-100847976D01*
X83052880Y-101133690D02*
X82052880Y-101133690D01*
X83052880Y-99990833D02*
X83052880Y-100562261D01*
X83052880Y-100276547D02*
X82052880Y-100276547D01*
X82195738Y-100371785D01*
X82290976Y-100467023D01*
X82338595Y-100562261D01*
%TD*%
M02*
